/* XPM */
static char * dwb_32x32_xpm[] = {
"32 32 44 1",
" 	c #1C00AC",
".	c #8354DC",
"+	c #5E2ECA",
"@	c #2800AF",
"#	c #1F00A9",
"$	c #451BB0",
"%	c #380AAD",
"&	c #794CD3",
"*	c #8B5FDC",
"=	c #2400AD",
"-	c #220096",
";	c #A182DB",
">	c #3002B2",
",	c #270082",
"'	c #B9A5DD",
")	c #B099D7",
"!	c #28007C",
"~	c #3F15BA",
"{	c #280075",
"]	c #5020A7",
"^	c #AB9ED0",
"/	c #CFC9DD",
"(	c #AC9BCB",
"_	c #4C1AA0",
":	c #4E20C3",
"<	c #240090",
"[	c #1D00A2",
"}	c #1F009B",
"|	c #32049A",
"1	c #5C2CBE",
"2	c #6A38C6",
"3	c #250088",
"4	c #7246D4",
"5	c #3F11B2",
"6	c #703FD3",
"7	c #30007D",
"8	c #713FCB",
"9	c #370095",
"0	c #37089F",
"a	c #2A00B0",
"b	c #6A38CF",
"c	c #2A0072",
"d	c #3608B8",
"e	c #572CAF",
"                                ",
" .............................. ",
" .............................. ",
" .............................. ",
" ......+@###@+....+@###@+...... ",
" .....$%&***&%$..$%&***&%$..... ",
"=.....-;;;;;;;-..-;;;;;;;-.....=",
">.....,'''''')!..,'''''')!.....>",
"~.....{]^///(_{..{]^///(_{.....~",
":.....{<#[}<|1....2>[}<3!{.....:",
"+....._<#[}145[-<<_6:}<3!_.....+",
"6+@###@%@[16##=#}<,781<90@###@+6",
"5%&***&%$.4#a~~>#}<!76.$%&***&%5",
"-;;;;;;;-.5#~+b:@[<!{_.-;;;;;;;-",
",'''''')!.}#~b6:a[<,{<.,'''''')!",
"{]^///(_{c-[>~:d }<!{<c{]^///(_{",
"{<#[}<3!{.<}#@@#[-3{!-.{<#[}<3!{",
"_<#[}<3!_.3<}}}}-3!{3[._<#[}<3!_",
"61@[}<9e.._,3<<<3!{!-~..1@[}<9e6",
"+......+@###[<!!{{3[###@+......+",
":.....$%&***&%3{!<%&***&%$.....:",
"~.....-;;;;;;;-<}-;;;;;;;-.....~",
"d.....,'''''')!..,'''''')!.....d",
"@.....{]^///(_{..{]^///(_{.....@",
" .....{<#[}<3!{..{<#[}<3!{..... ",
" ....._<#[}<3!_.._<#[}<3!_..... ",
" ......1@[}<9e....1@[}<9e...... ",
" .............................. ",
" .............................. ",
" .............................. ",
" .............................. ",
"                                "};
